<mxfile host="app.diagrams.net" modified="2022-11-05T08:23:43.468Z" agent="5.0 (Macintosh; Intel Mac OS X 10_15_7) AppleWebKit/537.36 (KHTML, like Gecko) Chrome/106.0.0.0 Safari/537.36" etag="q2Nvg7RQbMVSj3-Sjoev" version="20.5.0" type="github">
  <diagram id="Dx6WQnxCv--RNV2YaCjC" name="Page-1">
    <mxGraphModel dx="1621" dy="929" grid="1" gridSize="10" guides="1" tooltips="1" connect="1" arrows="1" fold="1" page="1" pageScale="1" pageWidth="850" pageHeight="1100" math="0" shadow="0">
      <root>
        <mxCell id="0" />
        <mxCell id="1" parent="0" />
        <mxCell id="0NXdwLCMXKkdyYBk7in0-3" value="" style="verticalLabelPosition=bottom;verticalAlign=top;html=1;shape=mxgraph.basic.rect;fillColor2=none;strokeWidth=1;size=20;indent=5;" vertex="1" parent="1">
          <mxGeometry x="240" y="70" width="120" height="60" as="geometry" />
        </mxCell>
        <mxCell id="0NXdwLCMXKkdyYBk7in0-4" value="" style="verticalLabelPosition=bottom;verticalAlign=top;html=1;shape=mxgraph.basic.rect;fillColor2=none;strokeWidth=1;size=20;indent=5;" vertex="1" parent="1">
          <mxGeometry x="240" y="185" width="120" height="60" as="geometry" />
        </mxCell>
        <mxCell id="0NXdwLCMXKkdyYBk7in0-6" value="" style="verticalLabelPosition=bottom;verticalAlign=top;html=1;shape=mxgraph.basic.rect;fillColor2=none;strokeWidth=1;size=20;indent=5;" vertex="1" parent="1">
          <mxGeometry x="240" y="300" width="120" height="60" as="geometry" />
        </mxCell>
        <mxCell id="0NXdwLCMXKkdyYBk7in0-7" value="" style="endArrow=none;dashed=1;html=1;dashPattern=1 3;strokeWidth=2;rounded=0;" edge="1" parent="1">
          <mxGeometry width="50" height="50" relative="1" as="geometry">
            <mxPoint x="300" y="290" as="sourcePoint" />
            <mxPoint x="300" y="250" as="targetPoint" />
          </mxGeometry>
        </mxCell>
        <mxCell id="0NXdwLCMXKkdyYBk7in0-21" value="" style="edgeStyle=orthogonalEdgeStyle;rounded=1;orthogonalLoop=1;jettySize=auto;html=1;" edge="1" parent="1" source="0NXdwLCMXKkdyYBk7in0-8" target="0NXdwLCMXKkdyYBk7in0-14">
          <mxGeometry relative="1" as="geometry" />
        </mxCell>
        <mxCell id="0NXdwLCMXKkdyYBk7in0-8" value="" style="shape=curlyBracket;whiteSpace=wrap;html=1;rounded=1;flipH=1;" vertex="1" parent="1">
          <mxGeometry x="370" y="70" width="20" height="290" as="geometry" />
        </mxCell>
        <mxCell id="0NXdwLCMXKkdyYBk7in0-9" value="" style="shape=curlyBracket;whiteSpace=wrap;html=1;rounded=1;" vertex="1" parent="1">
          <mxGeometry x="210" y="70" width="20" height="290" as="geometry" />
        </mxCell>
        <UserObject label="一段连续时间内来自物理镜头的多幅RAW图像" placeholders="1" name="Variable" id="0NXdwLCMXKkdyYBk7in0-12">
          <mxCell style="text;html=1;strokeColor=none;fillColor=none;align=center;verticalAlign=middle;whiteSpace=wrap;overflow=hidden;" vertex="1" parent="1">
            <mxGeometry x="130" y="152.5" width="80" height="125" as="geometry" />
          </mxCell>
        </UserObject>
        <mxCell id="0NXdwLCMXKkdyYBk7in0-32" value="" style="edgeStyle=orthogonalEdgeStyle;rounded=0;orthogonalLoop=1;jettySize=auto;html=1;" edge="1" parent="1" source="0NXdwLCMXKkdyYBk7in0-14" target="0NXdwLCMXKkdyYBk7in0-31">
          <mxGeometry relative="1" as="geometry" />
        </mxCell>
        <mxCell id="0NXdwLCMXKkdyYBk7in0-14" value="" style="verticalLabelPosition=bottom;verticalAlign=top;html=1;shape=mxgraph.basic.layered_rect;dx=10;outlineConnect=0;" vertex="1" parent="1">
          <mxGeometry x="440" y="275" width="100" height="60" as="geometry" />
        </mxCell>
        <mxCell id="0NXdwLCMXKkdyYBk7in0-17" value="" style="endArrow=none;dashed=1;html=1;dashPattern=1 3;strokeWidth=2;rounded=0;" edge="1" parent="1">
          <mxGeometry width="50" height="50" relative="1" as="geometry">
            <mxPoint x="300" y="140" as="sourcePoint" />
            <mxPoint x="300" y="180" as="targetPoint" />
          </mxGeometry>
        </mxCell>
        <UserObject label="快门时刻的RAW图像" placeholders="1" name="Variable" id="0NXdwLCMXKkdyYBk7in0-19">
          <mxCell style="text;html=1;strokeColor=none;fillColor=none;align=center;verticalAlign=middle;whiteSpace=wrap;overflow=hidden;" vertex="1" parent="1">
            <mxGeometry x="260" y="197.5" width="80" height="35" as="geometry" />
          </mxCell>
        </UserObject>
        <mxCell id="0NXdwLCMXKkdyYBk7in0-22" value="多张RAW图像的均值图像" style="text;html=1;strokeColor=none;fillColor=none;align=center;verticalAlign=middle;whiteSpace=wrap;rounded=0;" vertex="1" parent="1">
          <mxGeometry x="420" y="337.5" width="140" height="30" as="geometry" />
        </mxCell>
        <mxCell id="0NXdwLCMXKkdyYBk7in0-29" value="" style="edgeStyle=orthogonalEdgeStyle;rounded=0;orthogonalLoop=1;jettySize=auto;html=1;endArrow=block;endFill=0;" edge="1" parent="1" source="0NXdwLCMXKkdyYBk7in0-26" target="0NXdwLCMXKkdyYBk7in0-28">
          <mxGeometry relative="1" as="geometry" />
        </mxCell>
        <mxCell id="0NXdwLCMXKkdyYBk7in0-36" value="Yes" style="edgeLabel;html=1;align=center;verticalAlign=middle;resizable=0;points=[];" vertex="1" connectable="0" parent="0NXdwLCMXKkdyYBk7in0-29">
          <mxGeometry x="-0.3078" y="1" relative="1" as="geometry">
            <mxPoint x="-1" y="11" as="offset" />
          </mxGeometry>
        </mxCell>
        <mxCell id="0NXdwLCMXKkdyYBk7in0-38" value="" style="edgeStyle=orthogonalEdgeStyle;rounded=0;orthogonalLoop=1;jettySize=auto;html=1;endArrow=block;endFill=0;" edge="1" parent="1" source="0NXdwLCMXKkdyYBk7in0-26">
          <mxGeometry relative="1" as="geometry">
            <mxPoint x="550" y="435.0000000000002" as="targetPoint" />
          </mxGeometry>
        </mxCell>
        <mxCell id="0NXdwLCMXKkdyYBk7in0-39" value="No" style="edgeLabel;html=1;align=center;verticalAlign=middle;resizable=0;points=[];" vertex="1" connectable="0" parent="0NXdwLCMXKkdyYBk7in0-38">
          <mxGeometry x="-0.3134" y="-1" relative="1" as="geometry">
            <mxPoint x="-8" y="1" as="offset" />
          </mxGeometry>
        </mxCell>
        <mxCell id="0NXdwLCMXKkdyYBk7in0-26" value="该区域&lt;br&gt;快门图像与均值图像&lt;br&gt;接近" style="strokeWidth=2;html=1;shape=mxgraph.flowchart.decision;whiteSpace=wrap;rounded=1;" vertex="1" parent="1">
          <mxGeometry x="610" y="400" width="160" height="70" as="geometry" />
        </mxCell>
        <mxCell id="0NXdwLCMXKkdyYBk7in0-28" value="该区域为静态主体，保留到最终生成图像中" style="whiteSpace=wrap;html=1;strokeWidth=2;rounded=1;" vertex="1" parent="1">
          <mxGeometry x="630" y="540" width="120" height="60" as="geometry" />
        </mxCell>
        <mxCell id="0NXdwLCMXKkdyYBk7in0-33" value="" style="edgeStyle=orthogonalEdgeStyle;rounded=0;orthogonalLoop=1;jettySize=auto;html=1;" edge="1" parent="1" source="0NXdwLCMXKkdyYBk7in0-31" target="0NXdwLCMXKkdyYBk7in0-26">
          <mxGeometry relative="1" as="geometry" />
        </mxCell>
        <mxCell id="0NXdwLCMXKkdyYBk7in0-31" value="将均值图像与快门时刻的RAW图像进行&lt;br&gt;各区域比对" style="whiteSpace=wrap;html=1;strokeWidth=2;rounded=1;" vertex="1" parent="1">
          <mxGeometry x="630" y="275" width="120" height="60" as="geometry" />
        </mxCell>
        <UserObject label="快门时刻附近的RAW图像" placeholders="1" name="Variable" id="0NXdwLCMXKkdyYBk7in0-34">
          <mxCell style="text;html=1;strokeColor=none;fillColor=none;align=center;verticalAlign=middle;whiteSpace=wrap;overflow=hidden;" vertex="1" parent="1">
            <mxGeometry x="260" y="82.5" width="80" height="35" as="geometry" />
          </mxCell>
        </UserObject>
        <UserObject label="快门时刻附近的RAW图像" placeholders="1" name="Variable" id="0NXdwLCMXKkdyYBk7in0-35">
          <mxCell style="text;html=1;strokeColor=none;fillColor=none;align=center;verticalAlign=middle;whiteSpace=wrap;overflow=hidden;" vertex="1" parent="1">
            <mxGeometry x="260" y="312.5" width="80" height="35" as="geometry" />
          </mxCell>
        </UserObject>
        <mxCell id="0NXdwLCMXKkdyYBk7in0-45" value="" style="edgeStyle=orthogonalEdgeStyle;rounded=0;orthogonalLoop=1;jettySize=auto;html=1;endArrow=block;endFill=0;" edge="1" parent="1" source="0NXdwLCMXKkdyYBk7in0-42">
          <mxGeometry relative="1" as="geometry">
            <mxPoint x="470" y="540" as="targetPoint" />
          </mxGeometry>
        </mxCell>
        <mxCell id="0NXdwLCMXKkdyYBk7in0-46" value="Yes" style="edgeLabel;html=1;align=center;verticalAlign=middle;resizable=0;points=[];" vertex="1" connectable="0" parent="0NXdwLCMXKkdyYBk7in0-45">
          <mxGeometry x="-0.1042" y="2" relative="1" as="geometry">
            <mxPoint x="-2" as="offset" />
          </mxGeometry>
        </mxCell>
        <mxCell id="0NXdwLCMXKkdyYBk7in0-49" value="" style="edgeStyle=orthogonalEdgeStyle;rounded=1;orthogonalLoop=1;jettySize=auto;html=1;endArrow=block;endFill=0;" edge="1" parent="1" source="0NXdwLCMXKkdyYBk7in0-42" target="0NXdwLCMXKkdyYBk7in0-48">
          <mxGeometry relative="1" as="geometry" />
        </mxCell>
        <mxCell id="0NXdwLCMXKkdyYBk7in0-50" value="No" style="edgeLabel;html=1;align=center;verticalAlign=middle;resizable=0;points=[];" vertex="1" connectable="0" parent="0NXdwLCMXKkdyYBk7in0-49">
          <mxGeometry x="-0.1316" y="2" relative="1" as="geometry">
            <mxPoint y="-2" as="offset" />
          </mxGeometry>
        </mxCell>
        <mxCell id="0NXdwLCMXKkdyYBk7in0-42" value="输入RAW&lt;br&gt;图像组中存在该区域的&lt;br&gt;背景" style="strokeWidth=2;html=1;shape=mxgraph.flowchart.decision;whiteSpace=wrap;rounded=1;" vertex="1" parent="1">
          <mxGeometry x="390" y="400" width="160" height="70" as="geometry" />
        </mxCell>
        <mxCell id="0NXdwLCMXKkdyYBk7in0-47" value="将背景叠加到最终生成图像中" style="whiteSpace=wrap;html=1;strokeWidth=2;rounded=1;" vertex="1" parent="1">
          <mxGeometry x="410" y="540" width="120" height="60" as="geometry" />
        </mxCell>
        <mxCell id="0NXdwLCMXKkdyYBk7in0-48" value="将该区域快门图像保留到最终图像中" style="whiteSpace=wrap;html=1;strokeWidth=2;rounded=1;" vertex="1" parent="1">
          <mxGeometry x="200" y="405" width="120" height="60" as="geometry" />
        </mxCell>
      </root>
    </mxGraphModel>
  </diagram>
</mxfile>
